<svg version="1" xmlns="http://www.w3.org/2000/svg" width="933.333" height="933.333" viewBox="0 0 700.000000 700.000000"><path d="M326 75.6c-12.9 9.1-24.7 17.3-26.1 18.2-1.4.9-9.5 6.6-18 12.5-8.5 6-60.9 42.6-116.4 81.5-55.6 38.9-102.3 71.6-103.8 72.7l-2.8 2v28.9c0 15.8.2 29 .5 29.3.2.3 13.1.5 28.5.5 25.3 0 28.1.2 28.2 1.7.1 2.1.1 258.3 0 259.7-.1.8-8.2 1.1-28.1 1.1-15.4 0-28.2.2-28.5.5-.6.6-.8 55.8-.1 56.5.5.6 580.8.4 581.4-.1.6-.7.5-55.7-.2-56.3-.3-.4-13-.6-28.1-.6-17.1 0-27.8-.4-28.2-1-.3-.5-.6-59.5-.6-131.1V321.5l28.7-.3c15.7-.1 28.6-.6 28.6-1 .1-1.1.1-49.2.1-53.8-.1-3.7-.5-4.4-4.3-7-2.4-1.6-4.7-3.3-5.3-3.7-.5-.5-29.3-20.7-64-44.9-76-53.2-78.5-54.9-88.3-61.6-4.2-2.9-8.6-6-9.7-6.8-6.8-5-119.1-83.4-119.5-83.4-.3 0-11.1 7.5-24 16.6zM304.4 341c7.3 10.7 20.3 30.1 29 43 8.7 12.9 16.1 23.6 16.5 23.8.3.1 7.5-10 15.9-22.5 8.4-12.6 21.5-32 29-43.3l13.8-20.5 28.7-.2c15.8-.1 28.7.1 28.8.5v199.4l-.1 3.8h-57v-2.3c0-1.2-.1-27.3-.1-58l-.1-55.8-6.3 9.3c-3.5 5.1-16.7 24.7-29.2 43.5-18 27-23.1 33.9-24 32.9-1.3-1.2-26.3-38.2-46.1-68.3-5.9-8.9-11-16.2-11.4-16.2-.4-.1-.7 7.2-.7 16.1v57.5L291 525h-57l-.1-3.8V325.3l.1-4.2 28.6.2 28.7.2 13.1 19.5z"/></svg>