<svg xmlns="http://www.w3.org/2000/svg" xmlns:xlink="http://www.w3.org/1999/xlink" id="图层_1" x="0" y="0" enable-background="new 0 0 490 490" version="1.1" viewBox="0 0 490 490" xml:space="preserve"><style type="text/css">.st0{fill:#e6e6e6}</style><path d="M215.3,209.1c-5.2,0-9.4,4.2-9.4,9.4c0,5.2,4.2,9.4,9.4,9.4c5.2,0,9.4-4.2,9.4-9.4	C224.7,213.3,220.5,209.1,215.3,209.1z M315.3,270.4v-70.7c0-10.4-8.4-18.8-18.8-18.8H190.3c-10.4,0-18.8,8.4-18.8,18.8v93.8	c0,10.4,8.4,18.8,18.8,18.8h106.3c10.4,0,18.8-8.4,18.8-18.8V270.4L315.3,270.4L315.3,270.4z M309.1,293.4c0,6.9-5.6,12.5-12.5,12.5	H190.3c-6.2,0-11.3-4.5-12.3-10.4l1,1l32.4-32.4l21.3,21.3l43.4-45.7l33,33.1L309.1,293.4L309.1,293.4z M309.1,264.1l-33.1-33.2	l-43.4,45.7l-21.2-21.2L177.8,289v-89.3c0-6.9,5.6-12.5,12.5-12.5h106.3c6.9,0,12.5,5.6,12.5,12.5V264.1z" class="st0"/></svg>